<svg width="375" height="195" viewBox="0 0 375 195" fill="none" xmlns="http://www.w3.org/2000/svg">
<path d="M0.286876 186.299C-0.100297 186.693 -0.0948852 187.326 0.298962 187.713L6.71708 194.022C7.11093 194.41 7.74407 194.404 8.13124 194.01C8.51842 193.617 8.513 192.983 8.11916 192.596L2.41416 186.988L8.02246 181.283C8.40963 180.889 8.40422 180.256 8.01038 179.869C7.61653 179.482 6.98339 179.487 6.59621 179.881L0.286876 186.299ZM249.958 1.9991C279.401 3.24668 303.397 7.0319 322.126 12.6893C340.865 18.35 354.263 25.865 362.585 34.5242C370.879 43.1544 374.144 52.9271 372.655 63.2596C371.158 73.6392 364.843 84.7176 353.694 95.8421C331.391 118.095 290.028 140.246 230.771 157.032C171.54 173.809 94.5183 185.201 0.991453 186L1.00855 188C94.6817 187.199 171.885 175.791 231.316 158.956C290.722 142.129 332.458 119.855 355.106 97.2579C366.432 85.9574 373.054 74.5045 374.634 63.545C376.221 52.5385 372.702 42.1644 364.027 33.1383C355.381 24.1413 341.626 16.4907 322.704 10.7748C303.771 5.0556 279.599 1.25332 250.042 0.000896513L249.958 1.9991Z" fill="white" fill-opacity="0.5"/>
</svg>
